<?xml version="1.0" encoding="UTF-8"?>
<svg xmlns="http://www.w3.org/2000/svg" xmlns:xlink="http://www.w3.org/1999/xlink" width="64px" height="64px" viewBox="0 0 64 64" version="1.1">
<g id="surface1">
<path style=" stroke:none;fill-rule:nonzero;fill:rgb(0%,0%,0%);fill-opacity:1;" d="M 27.199219 8.46875 C 17.855469 16.746094 11.902344 22.015625 7.402344 26.003906 L 2.753906 30.101562 L 3.328125 30.785156 C 3.648438 31.167969 4.308594 31.914062 4.777344 32.449219 L 5.675781 33.449219 L 11.199219 28.523438 C 14.25 25.835938 18.433594 22.144531 20.480469 20.351562 C 22.527344 18.539062 25.941406 15.53125 28.054688 13.652344 C 30.164062 11.777344 31.9375 10.238281 32.019531 10.238281 C 32.105469 10.238281 38.058594 15.464844 45.246094 21.84375 L 58.347656 33.429688 L 59.222656 32.449219 C 59.710938 31.914062 60.351562 31.167969 60.671875 30.785156 L 61.226562 30.121094 L 53.078125 22.871094 C 48.574219 18.902344 42.070312 13.121094 38.613281 10.070312 C 35.15625 6.996094 32.171875 4.480469 32 4.480469 C 31.828125 4.480469 29.675781 6.273438 27.199219 8.46875 Z M 27.199219 8.46875 "/>
<path style=" stroke:none;fill-rule:nonzero;fill:rgb(0%,0%,0%);fill-opacity:1;" d="M 11.308594 13.078125 C 11.308594 15.9375 11.371094 18.347656 11.433594 18.410156 C 11.5625 18.539062 13.269531 17.089844 17.003906 13.675781 L 18.539062 12.265625 L 18.6875 10.070312 L 18.835938 7.894531 L 11.308594 7.894531 Z M 11.308594 13.078125 "/>
</g>
</svg>
